<svg fill="#ffffff" viewBox="0 0 24 24" xmlns="http://www.w3.org/2000/svg"><path d="m14.97535 3.01886.95982-1.73159a.19342.19342 0 0 0 -.33833-.18756l-.97045 1.75078a6.54141 6.54141 0 0 0 -5.25275 0l-.97048-1.75078a.19342.19342 0 0 0 -.33833.18756l.95985 1.7316a5.54614 5.54614 0 0 0 -3.09316 4.87635h12.137a5.54615 5.54615 0 0 0 -3.09317-4.87636zm-5.77624 2.6556a.5068.5068 0 1 1 .5068-.5068.50737.50737 0 0 1 -.5068.5068zm5.60178 0a.5068.5068 0 1 1 .5068-.5068.50737.50737 0 0 1 -.5068.5068zm-8.86946 11.497a1.46713 1.46713 0 0 0 1.46713 1.46713h.9736v3.00095a1.36046 1.36046 0 1 0 2.72091 0v-3.00095h1.81386v3.00095a1.36046 1.36046 0 1 0 2.72091 0v-3.00095h.97364a1.46713 1.46713 0 0 0 1.46713-1.46713v-8.79614h-12.13718zm-1.86728-9.02955a1.362 1.362 0 0 0 -1.36045 1.36046v5.66846a1.36046 1.36046 0 1 0 2.72091 0v-5.66846a1.362 1.362 0 0 0 -1.36046-1.36046zm15.8717 0a1.362 1.362 0 0 0 -1.36046 1.36046v5.66846a1.36046 1.36046 0 1 0 2.72091 0v-5.66846a1.362 1.362 0 0 0 -1.36045-1.36046z"/></svg>